# Blender v2.82 (sub 7) OBJ File: ''
# www.blender.org
mtllib wedge.mtl
o Cube
v 1.000000 1.000000 -1.000000
v 1.000000 -1.000000 -1.000000
v 1.000000 1.000000 1.000000
v 1.000000 -1.000000 1.000000
v -1.000000 1.000000 0.000000
v -1.000000 -1.000000 0.000000
vt 0.625000 0.500000
vt 0.875000 0.750000
vt 0.625000 0.750000
vt 0.375000 0.750000
vt 0.625000 1.000000
vt 0.375000 1.000000
vt 0.125000 0.500000
vt 0.375000 0.500000
vt 0.375000 0.250000
vt 0.625000 0.250000
vn 0.0000 1.0000 0.0000
vn -0.4472 0.0000 0.8944
vn 0.0000 -1.0000 0.0000
vn 1.0000 0.0000 0.0000
vn -0.4472 0.0000 -0.8944
usemtl Material
s off
f 1/1/1 5/2/1 3/3/1
f 4/4/2 3/3/2 5/5/2 6/6/2
f 6/7/3 2/8/3 4/4/3
f 2/8/4 1/1/4 3/3/4 4/4/4
f 6/9/5 5/10/5 1/1/5 2/8/5
